<svg xmlns="http://www.w3.org/2000/svg" version="1.1" xmlns:xlink="http://www.w3.org/1999/xlink" xmlns:svgjs="http://svgjs.com/svgjs" width="1440" height="560" preserveAspectRatio="none" viewBox="0 0 1440 560"><g mask="url(&quot;#SvgjsMask1171&quot;)" fill="none"><rect width="1440" height="560" x="0" y="0" fill="url(#SvgjsLinearGradient1172)"></rect><path d="M1440 0L809.99 0L1440 79.37z" fill="rgba(255, 255, 255, .1)"></path><path d="M809.99 0L1440 79.37L1440 281.34000000000003L643.81 0z" fill="rgba(255, 255, 255, .075)"></path><path d="M643.81 0L1440 281.34000000000003L1440 348.55L285.97999999999996 0z" fill="rgba(255, 255, 255, .05)"></path><path d="M285.98 0L1440 348.55L1440 422.70000000000005L177.29000000000002 0z" fill="rgba(255, 255, 255, .025)"></path><path d="M0 560L644.76 560L0 377.65z" fill="rgba(0, 0, 0, .1)"></path><path d="M0 377.65L644.76 560L775.45 560L0 241.14z" fill="rgba(0, 0, 0, .075)"></path><path d="M0 241.14L775.45 560L1086.6100000000001 560L0 171.94z" fill="rgba(0, 0, 0, .05)"></path><path d="M0 171.94L1086.6100000000001 560L1129.5700000000002 560L0 148.81z" fill="rgba(0, 0, 0, .025)"></path></g><defs><mask id="SvgjsMask1171"><rect width="1440" height="560" fill="#ffffff"></rect></mask><linearGradient x1="15.28%" y1="-39.29%" x2="84.72%" y2="139.29%" gradientUnits="userSpaceOnUse" id="SvgjsLinearGradient1172"><stop stop-color="#0e2a47" offset="0"></stop><stop stop-color="rgba(40, 130, 246, 1)" offset="1"></stop></linearGradient></defs></svg>